<?xml version="1.0" encoding="UTF-8"?>
<!DOCTYPE svg PUBLIC "-//W3C//DTD SVG 1.1//EN" "http://www.w3.org/Graphics/SVG/1.1/DTD/svg11.dtd">
<svg xmlns="http://www.w3.org/2000/svg" version="1.1" width="2048px" height="2048px" style="shape-rendering:geometricPrecision; text-rendering:geometricPrecision; image-rendering:optimizeQuality; fill-rule:evenodd; clip-rule:evenodd" xmlns:xlink="http://www.w3.org/1999/xlink">
<g><path style="opacity:0.998" fill="#000000" d="M 2047.5,638.5 C 2047.5,1022.83 2047.5,1407.17 2047.5,1791.5C 2004.83,1791.5 1962.17,1791.5 1919.5,1791.5C 1919.83,1429.17 1919.5,1066.83 1918.5,704.5C 1620.29,853.774 1321.95,1002.77 1023.5,1151.5C 682.15,981.158 340.817,810.825 -0.5,640.5C -0.5,639.833 -0.5,639.167 -0.5,638.5C 340.817,468.175 682.15,297.842 1023.5,127.5C 1364.85,297.842 1706.18,468.175 2047.5,638.5 Z"/></g>
<g><path style="opacity:0.998" fill="#000000" d="M 383.5,902.5 C 596.807,1009.15 810.14,1115.82 1023.5,1222.5C 1236.74,1115.96 1449.91,1009.29 1663,902.5C 1663.83,1092.5 1663.67,1282.5 1662.5,1472.5C 1450.17,1578.67 1237.83,1684.83 1025.5,1791C 1024.17,1791.67 1022.83,1791.67 1021.5,1791C 809.167,1684.83 596.833,1578.67 384.5,1472.5C 383.5,1282.5 383.167,1092.5 383.5,902.5 Z"/></g>
</svg>
